<mxfile host="app.diagrams.net" modified="2021-04-27T06:15:53.027Z" agent="5.0 (Macintosh; Intel Mac OS X 10_14_6) AppleWebKit/537.36 (KHTML, like Gecko) Chrome/90.0.4430.85 Safari/537.36" etag="ZpMACUsd_CWLJ9iH7shO" version="14.6.6" type="github">
  <diagram id="kHUJ-HkXZi6lD8vYeNRH" name="Page-1">
    <mxGraphModel dx="1773" dy="645" grid="1" gridSize="10" guides="1" tooltips="1" connect="1" arrows="1" fold="1" page="1" pageScale="1" pageWidth="827" pageHeight="1169" math="0" shadow="0">
      <root>
        <mxCell id="0" />
        <mxCell id="1" parent="0" />
        <mxCell id="mpP-ngaqhvOOiWs_aK7l-1" value="Companies_Payment_Providers" style="swimlane;childLayout=stackLayout;horizontal=1;startSize=30;horizontalStack=0;rounded=1;fontSize=14;fontStyle=0;strokeWidth=2;resizeParent=0;resizeLast=1;shadow=0;dashed=0;align=center;fillColor=#dae8fc;strokeColor=#6c8ebf;" vertex="1" parent="1">
          <mxGeometry y="180" width="250" height="120" as="geometry" />
        </mxCell>
        <mxCell id="mpP-ngaqhvOOiWs_aK7l-2" value="* id&#xa;+ company_id&#xa;+ payment_provider&#xa;+ active&#xa;" style="align=left;strokeColor=none;fillColor=none;spacingLeft=4;fontSize=13;verticalAlign=top;resizable=0;rotatable=0;part=1;" vertex="1" parent="mpP-ngaqhvOOiWs_aK7l-1">
          <mxGeometry y="30" width="250" height="90" as="geometry" />
        </mxCell>
        <mxCell id="mpP-ngaqhvOOiWs_aK7l-3" value="Beneficiaries" style="swimlane;childLayout=stackLayout;horizontal=1;startSize=30;horizontalStack=0;rounded=1;fontSize=14;fontStyle=0;strokeWidth=2;resizeParent=0;resizeLast=1;shadow=0;dashed=0;align=center;fillColor=#dae8fc;strokeColor=#6c8ebf;" vertex="1" parent="1">
          <mxGeometry x="680" y="180" width="110" height="120" as="geometry" />
        </mxCell>
        <mxCell id="mpP-ngaqhvOOiWs_aK7l-4" value="+ id&#xa;+ name&#xa;" style="align=left;strokeColor=none;fillColor=none;spacingLeft=4;fontSize=13;verticalAlign=top;resizable=0;rotatable=0;part=1;" vertex="1" parent="mpP-ngaqhvOOiWs_aK7l-3">
          <mxGeometry y="30" width="110" height="90" as="geometry" />
        </mxCell>
        <mxCell id="mpP-ngaqhvOOiWs_aK7l-5" value="Providers_Beneficiaries" style="swimlane;childLayout=stackLayout;horizontal=1;startSize=30;horizontalStack=0;rounded=1;fontSize=14;fontStyle=0;strokeWidth=2;resizeParent=0;resizeLast=1;shadow=0;dashed=0;align=center;fillColor=#dae8fc;strokeColor=#6c8ebf;" vertex="1" parent="1">
          <mxGeometry x="360" y="180" width="230" height="120" as="geometry" />
        </mxCell>
        <mxCell id="mpP-ngaqhvOOiWs_aK7l-6" value="+&#xa;* FK_company_payment_provider_id&#xa;* FK_beneficiary_id&#xa;" style="align=left;strokeColor=none;fillColor=none;spacingLeft=4;fontSize=13;verticalAlign=top;resizable=0;rotatable=0;part=1;" vertex="1" parent="mpP-ngaqhvOOiWs_aK7l-5">
          <mxGeometry y="30" width="230" height="90" as="geometry" />
        </mxCell>
      </root>
    </mxGraphModel>
  </diagram>
</mxfile>
